<svg version="1.1" id="Layer_1" xmlns="http://www.w3.org/2000/svg" xmlns:xlink="http://www.w3.org/1999/xlink" x="0px" y="0px"
	 width="100%" viewBox="0 0 1024 1024" enable-background="new 0 0 1024 1024" xml:space="preserve">
<path fill="#000000" opacity="1.000000" stroke="none" 
	d="
M896.371338,697.000122 
	C895.917175,710.965393 896.915588,724.430420 895.463501,737.914246 
	C891.718018,772.695007 880.021179,804.222107 857.958252,831.563293 
	C833.470947,861.909058 802.597961,882.648560 764.673523,892.462158 
	C752.555908,895.597778 740.184814,897.268738 727.680542,897.274109 
	C585.026123,897.335327 442.370544,897.642700 299.717834,897.149536 
	C243.649582,896.955688 199.197784,872.211792 165.295868,828.116821 
	C146.204041,803.284851 135.247269,774.919250 130.954697,744.014160 
	C129.631165,734.485229 128.802078,724.802368 128.792862,715.189026 
	C128.660675,577.534363 127.833344,439.871796 129.038101,302.227509 
	C129.766953,218.956024 186.821457,151.886978 264.271942,133.071808 
	C276.903687,130.003159 289.869415,128.770645 302.825256,128.759796 
	C442.646484,128.642563 582.467896,128.745895 722.289185,128.648560 
	C770.563110,128.614960 810.961731,147.220581 845.132812,180.277985 
	C873.003845,207.240631 889.331787,240.344864 895.082520,278.648834 
	C895.844666,283.725433 896.265320,288.904449 896.268372,294.036407 
	C896.348694,428.190948 896.352844,562.345520 896.371338,697.000122 
M709.500000,847.690613 
	C719.819397,847.750549 730.178223,848.101929 740.398926,846.462158 
	C770.944214,841.561951 796.879944,828.145691 816.924316,804.203247 
	C835.061707,782.538574 846.009277,757.336487 846.371277,729.347839 
	C847.401184,649.724731 846.987671,570.082397 847.053894,490.447571 
	C847.096436,439.283966 847.122864,388.119568 846.864380,336.956970 
	C846.772034,318.684326 848.031799,300.382385 844.847595,282.152222 
	C834.327209,221.921799 781.555054,177.325424 720.374329,177.324097 
	C585.713928,177.321167 451.053528,177.304611 316.393127,177.345993 
	C308.419830,177.348434 300.472015,177.321030 292.468597,178.146790 
	C264.131683,181.070526 239.230743,191.815536 218.735031,211.373016 
	C192.011871,236.872864 178.558487,268.907043 178.457275,305.633545 
	C178.080215,442.459412 178.239853,579.287109 178.437180,716.113770 
	C178.459747,731.754456 181.005173,747.200745 186.096344,762.142700 
	C202.662537,810.762085 246.979614,848.023438 306.019226,847.827026 
	C440.178162,847.380676 574.339600,847.688538 709.500000,847.690613 
M893.819397,526.500000 
	C893.429993,503.200256 894.739746,479.876343 892.878357,456.598572 
	C892.176147,447.817474 886.863159,444.147156 878.535278,446.846161 
	C875.242920,447.913177 872.083130,448.373077 868.761536,447.388824 
	C865.302551,446.363831 862.625488,447.539917 860.310059,450.151123 
	C857.594177,453.214050 855.821289,456.774109 854.688416,460.631500 
	C852.472717,468.175568 851.586426,475.965210 851.009949,483.766541 
	C849.154419,508.878632 850.276184,534.030701 850.150085,559.166626 
	C850.096924,569.758057 853.136414,579.537659 857.747620,588.894714 
	C860.576233,594.634460 864.289185,599.119141 871.796875,596.987610 
	C872.870605,596.682678 874.120178,596.907593 875.278625,597.004089 
	C885.667908,597.869690 890.563049,593.865784 891.947937,583.357300 
	C894.393738,564.798950 893.713562,546.136353 893.819397,526.500000 
z"/>
<path fill="#000000" opacity="1.000000" stroke="none" 
	d="
M634.620361,573.463318 
	C631.601196,591.910034 628.680603,609.932190 625.804138,627.961487 
	C621.621216,654.179321 617.465820,680.401489 613.307678,706.623230 
	C611.877808,715.640320 610.639282,724.691284 609.012878,733.672424 
	C607.492004,742.071106 603.368652,745.287537 594.844238,745.291748 
	C572.344910,745.302795 549.845581,745.303528 527.346252,745.271118 
	C525.359619,745.268311 523.314392,745.244812 521.398010,744.796509 
	C515.626343,743.446228 512.885071,739.652161 513.813904,733.780029 
	C516.823853,714.751831 520.023438,695.753662 523.145630,676.743225 
	C527.315857,651.351685 531.515747,625.964905 535.640747,600.566040 
	C540.164795,572.710266 544.577148,544.836243 549.161804,516.990540 
	C549.653503,514.003967 549.970276,511.252686 547.401489,509.237152 
	C544.627380,507.060638 542.344666,509.225494 540.186584,510.637787 
	C515.934753,526.508484 491.789551,542.543640 467.434967,558.254456 
	C461.214905,562.266907 459.524689,568.107788 458.481689,574.662598 
	C452.745148,610.712769 446.979126,646.758118 441.199188,682.801331 
	C438.545288,699.350952 435.881042,715.899292 433.135376,732.433899 
	C431.576477,741.821594 427.391571,745.286255 417.845184,745.292603 
	C395.679169,745.307495 373.513123,745.291138 351.347107,745.293823 
	C348.843384,745.294067 346.363586,745.272400 343.960907,744.356750 
	C339.656952,742.716431 337.485352,739.730347 338.213776,735.086182 
	C342.201111,709.664124 346.265198,684.254089 350.261444,658.833435 
	C354.437500,632.268982 358.538452,605.692627 362.724365,579.129761 
	C366.549377,554.857178 370.446991,530.595947 374.307251,506.328827 
	C378.089539,482.551788 381.878418,458.775787 385.640106,434.995514 
	C389.919891,407.940186 394.169464,380.880096 398.438354,353.823059 
	C401.827911,332.339294 405.146423,310.843842 408.666992,289.381531 
	C409.834473,282.264374 413.110626,279.702698 420.263153,279.692841 
	C444.762390,279.659119 469.261719,279.658295 493.760956,279.698700 
	C501.688477,279.711792 505.399536,284.141327 504.106781,291.849121 
	C497.902588,328.839813 491.672241,365.826111 485.493195,402.820984 
	C481.856628,424.593628 478.343018,446.386902 474.654938,468.150726 
	C474.124695,471.279694 474.806030,473.919617 477.027924,475.855927 
	C479.296234,477.832703 482.145508,477.271973 484.561646,475.940826 
	C491.999420,471.843109 499.389191,467.653809 506.719604,463.366730 
	C522.393372,454.200165 537.839539,444.624603 553.747253,435.887299 
	C560.499207,432.178864 562.792053,426.936646 563.694397,419.934326 
	C566.070007,401.499023 568.823242,383.112732 571.340515,364.695221 
	C574.173584,343.966949 576.892700,323.223114 579.708130,302.492401 
	C580.356323,297.719818 581.001282,292.932220 581.996033,288.225128 
	C583.166809,282.685272 586.996399,279.706635 592.692810,279.698090 
	C618.525330,279.659302 644.358093,279.652740 670.190552,279.704285 
	C677.646484,279.719177 680.948486,284.050049 679.773560,291.318695 
	C675.880432,315.404846 672.177612,339.521637 668.326050,363.614563 
	C665.103821,383.770569 661.720093,403.900787 658.507385,424.058258 
	C654.379333,449.958893 650.394043,475.882294 646.266479,501.783020 
	C642.479614,525.544922 638.585449,549.289673 634.620361,573.463318 
z"/>
</svg>